<svg width="27" height="18" viewBox="0 0 27 18" fill="none" xmlns="http://www.w3.org/2000/svg">
<path d="M4.51363 13.7371L4.33984 12.7523L4.05181 12.8032L3.83657 13.0012L4.51363 13.7371ZM17.5573 11.4353L17.7311 12.4201L18.2568 12.3273L18.4722 11.8389L17.5573 11.4353ZM23.0933 0.638813C22.8937 0.123884 22.3144 -0.131687 21.7995 0.0679788L13.4082 3.32173C12.8933 3.5214 12.6377 4.10069 12.8374 4.61562C13.037 5.13055 13.6163 5.38612 14.1313 5.18645L21.5902 2.29423L24.4824 9.75312C24.682 10.268 25.2613 10.5236 25.7763 10.324C26.2912 10.1243 26.5468 9.54499 26.3471 9.03006L23.0933 0.638813ZM0.677246 17.2666L1.3543 18.0025L5.19068 14.4731L4.51363 13.7371L3.83657 13.0012L0.000189598 16.5307L0.677246 17.2666ZM4.51363 13.7371L4.68741 14.7219L17.7311 12.4201L17.5573 11.4353L17.3835 10.4505L4.33984 12.7523L4.51363 13.7371ZM17.5573 11.4353L18.4722 11.8389L23.0759 1.40398L22.161 1.00034L21.2461 0.596701L16.6424 11.0317L17.5573 11.4353Z" fill="#57E592"/>
</svg>
