<svg width="18" height="27" viewBox="0 0 18 27" fill="none" xmlns="http://www.w3.org/2000/svg">
<path d="M4.26531 4.51314L5.25009 4.33935L5.19927 4.05133L5.00124 3.83608L4.26531 4.51314ZM6.56714 17.5568L5.58236 17.7306L5.67512 18.2563L6.1635 18.4718L6.56714 17.5568ZM17.3636 23.0929C17.8786 22.8932 18.1341 22.3139 17.9345 21.799L14.6807 13.4077C14.481 12.8928 13.9018 12.6372 13.3868 12.8369C12.8719 13.0366 12.6163 13.6158 12.816 14.1308L15.7082 21.5897L8.24932 24.4819C7.73439 24.6816 7.47882 25.2608 7.67849 25.7758C7.87815 26.2907 8.45745 26.5463 8.97238 26.3466L17.3636 23.0929ZM0.73584 0.676758L-9.11466e-05 1.35381L3.52938 5.1902L4.26531 4.51314L5.00124 3.83608L1.47177 -0.000298683L0.73584 0.676758ZM4.26531 4.51314L3.28053 4.68692L5.58236 17.7306L6.56714 17.5568L7.55192 17.3831L5.25009 4.33935L4.26531 4.51314ZM6.56714 17.5568L6.1635 18.4718L16.5985 23.0754L17.0021 22.1605L17.4057 21.2456L6.97078 16.6419L6.56714 17.5568Z" fill="#FE3636"/>
</svg>
