<svg width="27" height="26" viewBox="0 0 27 26" fill="none" xmlns="http://www.w3.org/2000/svg">
<path d="M12.5128 0.495305C12.8986 -0.166962 13.8553 -0.16696 14.2411 0.495307L18.0044 6.95654C18.1457 7.19915 18.3825 7.37117 18.6569 7.43059L25.9648 9.0131C26.7139 9.1753 27.0095 10.0852 26.4988 10.6567L21.5168 16.2325C21.3297 16.4419 21.2393 16.7202 21.2676 16.9995L22.0208 24.4388C22.098 25.2013 21.324 25.7637 20.6226 25.4546L13.7802 22.4394C13.5233 22.3262 13.2306 22.3262 12.9737 22.4394L6.13128 25.4546C5.42995 25.7637 4.65592 25.2013 4.73312 24.4388L5.48635 16.9995C5.51463 16.7202 5.42419 16.4419 5.23712 16.2325L0.255055 10.6567C-0.2556 10.0852 0.0400542 9.1753 0.789107 9.0131L8.09704 7.43059C8.37143 7.37117 8.60821 7.19914 8.74951 6.95654L12.5128 0.495305Z" fill="#3041FB"/>
</svg>
