<svg width="19" height="18" viewBox="0 0 19 18" fill="none" xmlns="http://www.w3.org/2000/svg">
<path d="M8.89093 0.339762C9.04473 -0.112081 9.68378 -0.112082 9.83759 0.339761L11.7186 5.86566C11.7875 6.06829 11.9778 6.20454 12.1919 6.20454H18.2275C18.7175 6.20454 18.9151 6.83618 18.5125 7.1154L13.6702 10.4736C13.4867 10.6009 13.4098 10.8343 13.4818 11.0456L15.3407 16.5068C15.4961 16.9634 14.9788 17.3536 14.5824 17.0788L9.6492 13.6575C9.47783 13.5386 9.25069 13.5386 9.07932 13.6575L4.14607 17.0788C3.74974 17.3536 3.23238 16.9634 3.3878 16.5068L5.24674 11.0456C5.31868 10.8343 5.2418 10.6009 5.05835 10.4736L0.216031 7.1154C-0.186595 6.83617 0.0109978 6.20454 0.500973 6.20454H6.53663C6.75068 6.20454 6.94098 6.06829 7.00996 5.86566L8.89093 0.339762Z" fill="#FFCB14"/>
</svg>
