<svg width="44" height="43" viewBox="0 0 44 43" fill="none" xmlns="http://www.w3.org/2000/svg">
<path d="M21.1359 1.48359C21.5216 0.82132 22.4784 0.821321 22.8641 1.48359L29.537 12.9402C29.6783 13.1828 29.9151 13.3548 30.1894 13.4142L43.1474 16.2202C43.8964 16.3824 44.1921 17.2924 43.6814 17.8639L34.8476 27.7504C34.6605 27.9598 34.5701 28.2381 34.5983 28.5175L35.9339 41.7082C36.0111 42.4708 35.2371 43.0331 34.5357 42.7241L22.4032 37.3777C22.1463 37.2645 21.8537 37.2645 21.5968 37.3777L9.46427 42.7241C8.76293 43.0331 7.9889 42.4708 8.0661 41.7082L9.40166 28.5175C9.42994 28.2381 9.3395 27.9598 9.15244 27.7504L0.318595 17.8639C-0.19206 17.2924 0.103594 16.3824 0.852646 16.2202L13.8105 13.4142C14.0849 13.3548 14.3217 13.1828 14.463 12.9402L21.1359 1.48359Z" fill="white"/>
</svg>
